# xmcd CD database file
#
# Track frame offsets:
#	150
#	21925
#	42810
#	62030
#	82897
#	107925
#	128942
#	150472
#	167220
#	182592
#
# Disc length: 2584 seconds
#
# Revision: 0
# Processed by: cddbd v1.5.2PL0 Copyright (c) Steve Scherf et al.
# Submitted via: CDex 1.51
#
DISCID=7a0a160a
DTITLE=Shigeko Suzuki - A Talk with the Wind
DYEAR=2004
DGENRE=Jazz
TTITLE0=She Was Beautiful (Cavatina)
TTITLE1=Fotografia
TTITLE2=On The Day
TTITLE3=Melody Fair
TTITLE4=Green Sleeves
TTITLE5=Moon Nocturn
TTITLE6=いつか
TTITLE7=椰子の実
TTITLE8=Forever Green
TTITLE9=Lullaby
EXTD=YEAR: 2004
EXTT0=
EXTT1=
EXTT2=
EXTT3=
EXTT4=
EXTT5=
EXTT6=
EXTT7=
EXTT8=
EXTT9=
PLAYORDER=
